<svg width="2137" height="512" viewBox="0 0 2137 512" fill="none" xmlns="http://www.w3.org/2000/svg">
    <defs>
        <linearGradient id="icon-grad" x1="0" y1="0" x2="512" y2="512" gradientUnits="userSpaceOnUse">
            <stop stop-color="#8B5CF6"/>
            <stop offset="1" stop-color="#7C3AED"/>
        </linearGradient>
        <linearGradient id="text-grad" x1="-76.5297" y1="43" x2="2060.47" y2="555" gradientUnits="userSpaceOnUse">
            <stop stop-color="#8B5CF6"/>
            <stop offset="1" stop-color="#7C3AED"/>
        </linearGradient>
        <clipPath id="clip0">
            <rect width="2137" height="512" fill="white"/>
        </clipPath>
    </defs>
    <g clip-path="url(#clip0)">
        <path d="M42.4538 175.39L175.39 42.4538" stroke="url(#icon-grad)" stroke-width="44" stroke-linecap="round"/>
        <path d="M29.0187 286.406L123.771 191.653" stroke="url(#icon-grad)" stroke-width="44" stroke-linecap="round"/>
        <path d="M191.653 123.771L286.406 29.0187" stroke="url(#icon-grad)" stroke-width="44" stroke-linecap="round"/>
        <path d="M55.1817 357.823L118.821 294.184" stroke="url(#icon-grad)" stroke-width="44" stroke-linecap="round"/>
        <path d="M294.184 118.821L357.823 55.1817" stroke="url(#icon-grad)" stroke-width="44" stroke-linecap="round"/>
        <path d="M97.6081 414.392L154.177 357.823" stroke="url(#icon-grad)" stroke-width="44" stroke-linecap="round"/>
        <path d="M357.823 154.177L414.392 97.6082" stroke="url(#icon-grad)" stroke-width="44" stroke-linecap="round"/>
        <path d="M154.177 456.818L217.816 393.179" stroke="url(#icon-grad)" stroke-width="44" stroke-linecap="round"/>
        <path d="M393.179 217.816L456.818 154.177" stroke="url(#icon-grad)" stroke-width="44" stroke-linecap="round"/>
        <path d="M225.594 482.981L320.347 388.229" stroke="url(#icon-grad)" stroke-width="44" stroke-linecap="round"/>
        <path d="M388.229 320.347L482.981 225.594" stroke="url(#icon-grad)" stroke-width="44" stroke-linecap="round"/>
        <path d="M336.61 469.546L469.546 336.61" stroke="url(#icon-grad)" stroke-width="44" stroke-linecap="round"/>
        <path d="M742.47 404.2C706.07 404.2 677.47 394.147 656.67 374.04C635.87 353.587 625.47 325.853 625.47 290.84V113H690.47V290.32C690.47 308.693 694.977 322.907 703.99 332.96C713.003 342.667 725.83 347.52 742.47 347.52C758.763 347.52 771.417 342.667 780.43 332.96C789.79 322.907 794.47 308.693 794.47 290.32V113H859.47V290.84C859.47 325.853 848.897 353.587 827.75 374.04C806.603 394.147 778.177 404.2 742.47 404.2ZM922.707 399V113H986.15V167.6H1003.83L986.15 182.68C986.15 159.107 992.91 140.733 1006.43 127.56C1020.29 114.387 1039.19 107.8 1063.11 107.8C1091.19 107.8 1113.55 117.16 1130.19 135.88C1147.17 154.6 1155.67 179.733 1155.67 211.28V399H1090.67V218.04C1090.67 200.707 1086.16 187.36 1077.15 178C1068.13 168.64 1055.48 163.96 1039.19 163.96C1023.24 163.96 1010.59 168.813 1001.23 178.52C992.21 188.227 987.71 202.093 987.71 220.12V399H922.707ZM1335.38 404.2C1311.12 404.2 1289.97 399.52 1271.94 390.16C1253.92 380.8 1239.88 367.8 1229.82 351.16C1220.12 334.173 1215.26 314.413 1215.26 291.88V220.12C1215.26 197.587 1220.12 178 1229.82 161.36C1239.88 144.373 1253.92 131.2 1271.94 121.84C1289.97 112.48 1311.12 107.8 1335.38 107.8C1359.3 107.8 1380.1 112.48 1397.78 121.84C1415.81 131.2 1429.68 144.373 1439.38 161.36C1449.44 178 1454.46 197.587 1454.46 220.12V271.6H1278.18V291.88C1278.18 311.987 1283.04 327.24 1292.74 337.64C1302.45 347.693 1316.84 352.72 1335.9 352.72C1350.46 352.72 1362.25 350.293 1371.26 345.44C1380.28 340.24 1386 332.787 1388.42 323.08H1452.38C1447.53 347.693 1434.36 367.453 1412.86 382.36C1391.72 396.92 1365.89 404.2 1335.38 404.2ZM1391.54 235.2V219.6C1391.54 199.84 1386.86 184.76 1377.5 174.36C1368.14 163.613 1354.1 158.24 1335.38 158.24C1316.66 158.24 1302.45 163.613 1292.74 174.36C1283.04 185.107 1278.18 200.36 1278.18 220.12V231.04L1396.22 230L1391.54 235.2ZM1523.94 399V113H1585.3V167.6H1601.42L1582.18 200.88C1582.18 170.027 1589.11 146.8 1602.98 131.2C1616.85 115.6 1637.3 107.8 1664.34 107.8C1695.19 107.8 1719.46 117.333 1737.14 136.4C1754.82 155.467 1763.66 181.813 1763.66 215.44V236.24H1695.54V220.12C1695.54 201.747 1690.69 187.533 1680.98 177.48C1671.62 167.427 1658.62 162.4 1641.98 162.4C1624.99 162.4 1611.82 167.427 1602.46 177.48C1593.45 187.533 1588.94 201.747 1588.94 220.12V399H1523.94ZM1820.14 399V113H1881.5V167.6H1897.62L1878.38 200.88C1878.38 170.027 1885.31 146.8 1899.18 131.2C1913.04 115.6 1933.5 107.8 1960.54 107.8C1991.39 107.8 2015.66 117.333 2033.34 136.4C2051.02 155.467 2059.86 181.813 2059.86 215.44V236.24H1991.74V220.12C1991.74 201.747 1986.88 187.533 1977.18 177.48C1967.82 167.427 1954.82 162.4 1938.18 162.4C1921.19 162.4 1908.02 167.427 1898.66 177.48C1889.64 187.533 1885.14 201.747 1885.14 220.12V399H1820.14Z" fill="url(#text-grad)"/>
    </g>
</svg>
