<svg width="1435" height="297" viewBox="0 0 1435 297" fill="none" xmlns="http://www.w3.org/2000/svg">
    <path d="M117 296.4C80.6 296.4 52 286.347 31.2 266.24C10.4 245.787 0 218.053 0 183.04V5.2H65V182.52C65 200.893 69.507 215.107 78.52 225.16C87.533 234.867 100.36 239.72 117 239.72C133.293 239.72 145.947 234.867 154.96 225.16C164.32 215.107 169 200.893 169 182.52V5.2H234V183.04C234 218.053 223.427 245.787 202.28 266.24C181.133 286.347 152.707 296.4 117 296.4ZM297.237 291.2V5.2H360.68V59.8H378.36L360.68 74.88C360.68 51.307 367.44 32.9333 380.96 19.76C394.82 6.58669 413.72 0 437.64 0C465.72 0 488.08 9.35999 504.72 28.08C521.7 46.8 530.2 71.933 530.2 103.48V291.2H465.2V110.24C465.2 92.907 460.69 79.56 451.68 70.2C442.66 60.84 430.01 56.16 413.72 56.16C397.77 56.16 385.12 61.013 375.76 70.72C366.74 80.427 362.24 94.293 362.24 112.32V291.2H297.237ZM709.91 296.4C685.65 296.4 664.5 291.72 646.47 282.36C628.45 273 614.41 260 604.35 243.36C594.65 226.373 589.79 206.613 589.79 184.08V112.32C589.79 89.787 594.65 70.2 604.35 53.56C614.41 36.573 628.45 23.4 646.47 14.04C664.5 4.67999 685.65 0 709.91 0C733.83 0 754.63 4.67999 772.31 14.04C790.34 23.4 804.21 36.573 813.91 53.56C823.97 70.2 828.99 89.787 828.99 112.32V163.8H652.71V184.08C652.71 204.187 657.57 219.44 667.27 229.84C676.98 239.893 691.37 244.92 710.43 244.92C724.99 244.92 736.78 242.493 745.79 237.64C754.81 232.44 760.53 224.987 762.95 215.28H826.91C822.06 239.893 808.89 259.653 787.39 274.56C766.25 289.12 740.42 296.4 709.91 296.4ZM766.07 127.4V111.8C766.07 92.04 761.39 76.96 752.03 66.56C742.67 55.813 728.63 50.44 709.91 50.44C691.19 50.44 676.98 55.813 667.27 66.56C657.57 77.307 652.71 92.56 652.71 112.32V123.24L770.75 122.2L766.07 127.4ZM898.47 291.2V5.2H959.83V59.8H975.95L956.71 93.08C956.71 62.227 963.64 39 977.51 23.4C991.38 7.79999 1011.83 0 1038.87 0C1069.72 0 1093.99 9.5333 1111.67 28.6C1129.35 47.667 1138.19 74.013 1138.19 107.64V128.44H1070.07V112.32C1070.07 93.947 1065.22 79.733 1055.51 69.68C1046.15 59.627 1033.15 54.6 1016.51 54.6C999.52 54.6 986.35 59.627 976.99 69.68C967.98 79.733 963.47 93.947 963.47 112.32V291.2H898.47ZM1194.67 291.2V5.2H1256.03V59.8H1272.15L1252.91 93.08C1252.91 62.227 1259.84 39 1273.71 23.4C1287.57 7.79999 1308.03 0 1335.07 0C1365.92 0 1390.19 9.5333 1407.87 28.6C1425.55 47.667 1434.39 74.013 1434.39 107.64V128.44H1366.27V112.32C1366.27 93.947 1361.41 79.733 1351.71 69.68C1342.35 59.627 1329.35 54.6 1312.71 54.6C1295.72 54.6 1282.55 59.627 1273.19 69.68C1264.17 79.733 1259.67 93.947 1259.67 112.32V291.2H1194.67Z" fill="url(#paint0_linear_9_109)"/>
    <defs>
        <linearGradient id="paint0_linear_9_109" x1="-702" y1="-64.8" x2="1435" y2="447.2" gradientUnits="userSpaceOnUse">
            <stop stop-color="#8B5CF6"/>
            <stop offset="1" stop-color="#7C3AED"/>
        </linearGradient>
    </defs>
</svg>
